<svg width="16" height="17" viewBox="0 0 16 17" fill="none" xmlns="http://www.w3.org/2000/svg">
<path d="M15.6883 7.18861C13.1789 7.18737 10.6694 7.18799 8.16 7.18828C8.16033 8.22912 8.15877 9.26996 8.16062 10.3105C9.61391 10.3102 11.0672 10.3099 12.5202 10.3105C12.3518 11.3079 11.759 12.22 10.9185 12.7815C10.3901 13.1368 9.78296 13.3674 9.15707 13.477C8.52715 13.5845 7.87626 13.5983 7.2479 13.4711C6.60891 13.3436 5.99895 13.0774 5.46684 12.7021C4.616 12.1043 3.96667 11.2297 3.63327 10.2454C3.29236 9.24431 3.28986 8.13034 3.63483 7.13014C3.87419 6.42521 4.27259 5.77402 4.79595 5.24409C5.44151 4.58321 6.28081 4.11077 7.18508 3.91703C7.95937 3.75175 8.77585 3.78329 9.53392 4.01263C10.1782 4.20826 10.7722 4.56133 11.2588 5.02596C11.7506 4.53694 12.2399 4.04512 12.7308 3.55518C12.9883 3.29147 13.2589 3.0393 13.5082 2.7684C12.7627 2.07845 11.8887 1.52384 10.9338 1.17324C9.21457 0.540525 7.2757 0.527096 5.54495 1.12613C3.59451 1.79386 1.93373 3.25245 1.01291 5.09604C0.692326 5.73129 0.458268 6.40934 0.317664 7.10676C-0.0360565 8.84438 0.210488 10.697 1.01197 12.2797C1.53286 13.3127 2.27965 14.231 3.18551 14.951C4.04012 15.6325 5.03625 16.1358 6.0924 16.4168C7.42509 16.7742 8.84367 16.7661 10.1851 16.4608C11.3975 16.1818 12.5446 15.6025 13.4604 14.7569C14.4285 13.8673 15.119 12.6952 15.4846 11.4357C15.8833 10.0618 15.9383 8.59504 15.6883 7.18861Z" fill="#DB4437"/>
</svg>
