<svg width="183" height="183" viewBox="0 0 183 183" fill="none" xmlns="http://www.w3.org/2000/svg">
<path d="M182.79 90.3002C182.72 81.4602 181.34 72.9402 178.89 64.8802C174.31 49.8002 165.92 36.3802 154.85 25.7102C153.21 24.1402 151.52 22.6202 149.77 21.1702C149.06 20.5802 148.32 19.9802 147.56 19.4102C146.73 18.7402 145.87 18.1002 144.99 17.4902C144.16 16.8702 143.33 16.3002 142.47 15.7102C141.83 15.3102 141.19 14.8802 140.55 14.4802H140.53C102.34 9.49024 74.7102 32.1802 71.6902 34.7602C83.7602 22.4302 99.7702 13.9802 117.7 11.4102C121.5 10.8402 125.4 10.5502 129.34 10.5502C130.91 10.5502 132.48 10.6002 134.04 10.6902C121.38 4.02024 106.94 0.240234 91.6402 0.240234C87.1702 0.240234 82.8002 0.550239 78.5002 1.19024C38.6702 6.91024 7.1702 38.3602 1.4002 78.1302C0.7802 82.4302 0.450195 86.8702 0.450195 91.3402V91.9602C0.780195 141.96 41.4702 182.36 91.6402 182.36C106.96 182.36 121.4 178.58 134.09 171.91C132.52 172.01 130.93 172.05 129.34 172.05C106.85 172.05 86.4902 162.88 71.8602 148.11C75.5402 151.25 102.81 173.07 140.32 168.3C142.67 166.83 144.93 165.24 147.11 163.57C147.85 163.02 148.56 162.45 149.27 161.86C149.84 161.41 150.39 160.96 150.93 160.48C151.22 160.24 151.5 159.98 151.79 159.72C152.31 159.29 152.79 158.86 153.29 158.41C153.43 158.27 153.58 158.12 153.72 158.01C154.31 157.46 154.88 156.92 155.45 156.35C156.33 155.49 157.18 154.62 158.04 153.71C158.87 152.83 159.68 151.95 160.49 151.03C162.01 149.27 163.46 147.47 164.86 145.59C165.29 145.02 165.72 144.43 166.12 143.86C167.74 141.58 169.26 139.2 170.66 136.78C178.38 123.41 182.82 107.9 182.82 91.3402C182.81 91.0102 182.81 90.6302 182.79 90.3002ZM124.24 141.27C114.83 147.52 103.62 151.17 91.6502 151.17C84.5502 151.17 77.7502 149.93 71.4402 147.68C53.1502 141.15 38.9902 126.02 33.8202 107.16C32.4402 102.12 31.7102 96.8302 31.7102 91.3402C31.7102 84.6702 32.7802 78.2802 34.8002 72.2702C40.6202 54.9302 54.2102 41.1302 71.4502 35.0002C77.7702 32.7202 84.5902 31.4802 91.6602 31.4802C94.0402 31.4802 96.3602 31.6202 98.6702 31.8802C102.42 32.3102 106.06 33.0902 109.55 34.1802C125.01 39.0002 137.77 49.8802 145.04 64.0602C148.86 71.4502 151.14 79.8102 151.55 88.6202C152.48 110.3 141.32 130.01 124.24 141.27Z" fill="#6E97CF"/>
<path d="M182.791 90.3002C182.721 81.4602 181.341 72.9402 178.891 64.8802C174.311 49.8002 165.921 36.3802 154.851 25.7102C153.211 24.1402 151.521 22.6202 149.771 21.1702C149.061 20.5802 148.321 19.9802 147.561 19.4102C146.731 18.7402 145.871 18.1002 144.991 17.4902C144.161 16.8702 143.331 16.3002 142.471 15.7102C141.831 15.3102 141.191 14.8802 140.551 14.4802H140.531C102.341 9.49017 74.7107 32.1802 71.6907 34.7602C71.5207 34.9302 71.4307 35.0002 71.4307 35.0002C77.7507 32.7202 84.5707 31.4802 91.6407 31.4802C94.0207 31.4802 96.3407 31.6202 98.6507 31.8802C102.401 32.3102 106.041 33.0902 109.531 34.1802C124.991 39.0002 137.751 49.8802 145.021 64.0602C148.841 71.4502 151.121 79.8102 151.531 88.6202C152.481 110.28 141.321 130 124.241 141.26C114.831 147.51 103.621 151.16 91.6507 151.16C84.5507 151.16 77.7507 149.92 71.4407 147.67L71.8707 148.1C75.5507 151.24 102.821 173.06 140.331 168.29C142.681 166.82 144.941 165.23 147.121 163.56C147.861 163.01 148.571 162.44 149.281 161.85C149.851 161.4 150.401 160.95 150.941 160.47C151.231 160.23 151.511 159.97 151.801 159.71C152.321 159.28 152.801 158.85 153.301 158.4C153.441 158.26 153.591 158.11 153.731 158C154.321 157.45 154.891 156.91 155.461 156.34C156.341 155.48 157.191 154.61 158.051 153.7C158.881 152.82 159.691 151.94 160.501 151.02C162.021 149.26 163.471 147.46 164.871 145.58C165.301 145.01 165.731 144.42 166.131 143.85C167.751 141.57 169.271 139.19 170.671 136.77C178.391 123.4 182.831 107.89 182.831 91.3302C182.811 91.0102 182.811 90.6302 182.791 90.3002Z" fill="#505050"/>
</svg>
